<?xml version="1.0" standalone="no"?>
<!DOCTYPE svg PUBLIC "-//W3C//DTD SVG 20010904//EN"
 "http://www.w3.org/TR/2001/REC-SVG-20010904/DTD/svg10.dtd">
<svg version="1.0" xmlns="http://www.w3.org/2000/svg"
 width="512.000000pt" height="512.000000pt" viewBox="0 0 512.000000 512.000000"
 preserveAspectRatio="xMidYMid meet">

<g transform="translate(0.000000,512.000000) scale(0.100000,-0.100000)"
fill="#000000" stroke="none">
<path d="M187 5106 c-82 -30 -143 -91 -173 -173 -19 -55 -17 -114 7 -180 20
-55 68 -105 1088 -1125 l1066 -1068 -1066 -1067 c-1032 -1033 -1067 -1070
-1089 -1128 -80 -218 127 -425 345 -345 58 22 95 57 1128 1089 l1067 1066
1068 -1066 c1032 -1032 1069 -1067 1127 -1089 218 -80 425 127 345 345 -22 58
-57 95 -1089 1128 l-1066 1067 1066 1068 c1032 1032 1067 1069 1089 1127 80
218 -127 425 -345 345 -58 -22 -95 -57 -1127 -1089 l-1068 -1066 -1068 1066
c-1020 1020 -1070 1068 -1125 1088 -66 24 -125 26 -180 7z"/>
</g>
</svg>
